<svg width="24" height="24" viewBox="0 0 24 24" fill="none" xmlns="http://www.w3.org/2000/svg">
<path d="M20.2501 9.5L20.0001 11.5L14.0001 18L11.5001 15.5L6.49987 20.5C6.00001 21 4.69034 21.1903 4 20.5C3.3096 19.8097 3.5 18.5 3.99998 18L18.0001 3.5C19.5001 4.5 20.2501 6.5 20.2501 9.5ZM20.2501 9.5V16.5V19" stroke="white" stroke-width="2.5" stroke-linecap="round" stroke-linejoin="round"/>
<path d="M9 13L18 4L20.5 8L20 12L14 18L9 13Z" fill="#F00A19"/>
<path fill-rule="evenodd" clip-rule="evenodd" d="M18.7051 3.21514C20.2111 4.72111 20.9999 6.80078 20.9999 8.80874V16.6972C20.9999 17.1274 20.7131 17.4143 20.2828 17.4143C19.8525 17.4143 19.5657 17.1274 19.5657 16.6972V13.2549C19.3505 13.6135 19.0637 13.9721 18.7051 14.3306L14.6175 18.4183C14.4741 18.5617 14.2589 18.6334 14.1155 18.6334C13.9721 18.6334 13.7569 18.5617 13.6135 18.4183L11.6055 16.4103L7.30277 20.7131C6.80078 21.1434 6.15537 21.4302 5.50995 21.4302C4.79282 21.4302 4.21912 21.2151 3.71713 20.7131C3.28685 20.2111 3 19.5657 3 18.9203C3 18.2031 3.21514 17.6294 3.71713 17.1274L8.52189 12.3227L17.7011 3.21514C17.988 2.92829 18.4183 2.92829 18.7051 3.21514ZM14.1155 16.9123L17.7011 13.3267C19.9959 10.9601 20.2111 7.23106 18.1314 4.72111L10.0996 12.8964L12.1075 14.9043L14.1155 16.9123ZM19.9963 18.2032C20.2832 18.0598 20.57 18.1315 20.7852 18.3467C20.8569 18.4184 20.9286 18.4901 20.9286 18.5618C21.0003 18.6335 21.0003 18.7769 21.0003 18.8486C21.0003 19.0638 20.9286 19.2072 20.7852 19.3506C20.7493 19.3865 20.7135 19.4044 20.6776 19.4224C20.6418 19.4403 20.6059 19.4582 20.57 19.4941C20.4983 19.5658 20.3549 19.5658 20.2832 19.5658C20.0681 19.5658 19.9246 19.4941 19.7812 19.3506C19.7453 19.3148 19.7274 19.2789 19.7095 19.2431C19.6916 19.2072 19.6736 19.1714 19.6378 19.1355C19.5661 19.0638 19.5661 18.9204 19.5661 18.8486C19.5661 18.7769 19.5661 18.6335 19.6378 18.5618C19.6378 18.4901 19.7095 18.4184 19.7812 18.3467C19.8529 18.2749 19.9246 18.2032 19.9963 18.2032Z" fill="black"/>
</svg>
